<?xml version="1.0" encoding="UTF-8" standalone="no"?>
<!-- Generator: Adobe Illustrator 12.0.1, SVG Export Plug-In . SVG Version: 6.00 Build 51448)  -->

<svg
   version="1.1"
   id="Layer_1"
   width="300"
   height="324.70001"
   viewBox="0 0 300 324.7"
   style="overflow:visible"
   xml:space="preserve"
   sodipodi:version="0.32"
   inkscape:version="0.44.1"
   sodipodi:docname="test.svg"
   inkscape:export-filename="check.svg"
   inkscape:export-xdpi="96"
   inkscape:export-ydpi="96"
   xmlns:inkscape="http://www.inkscape.org/namespaces/inkscape"
   xmlns:sodipodi="http://sodipodi.sourceforge.net/DTD/sodipodi-0.dtd"
   xmlns="http://www.w3.org/2000/svg"
   xmlns:svg="http://www.w3.org/2000/svg"
   xmlns:rdf="http://www.w3.org/1999/02/22-rdf-syntax-ns#"
   xmlns:cc="http://creativecommons.org/ns#"
   xmlns:dc="http://purl.org/dc/elements/1.1/"><metadata
   id="metadata1967"><rdf:RDF><cc:Work
       rdf:about=""><dc:format>image/svg+xml</dc:format><dc:type
         rdf:resource="http://purl.org/dc/dcmitype/StillImage" /></cc:Work></rdf:RDF></metadata><defs
   id="defs1965" /><sodipodi:namedview
   inkscape:window-height="573"
   inkscape:window-width="853"
   inkscape:pageshadow="2"
   inkscape:pageopacity="0.0"
   guidetolerance="10.0"
   gridtolerance="10.0"
   objecttolerance="10.0"
   borderopacity="1.0"
   bordercolor="#666666"
   pagecolor="#ffffff"
   id="base"
   inkscape:zoom="1.1610717"
   inkscape:cx="150"
   inkscape:cy="162.35001"
   inkscape:window-x="66"
   inkscape:window-y="87"
   inkscape:current-layer="Layer_1"
   inkscape:showpageshadow="0"
   inkscape:pagecheckerboard="1"
   inkscape:deskcolor="#d1d1d1"
   showgrid="false" />
<g
   id="g1960">
	
<path
   style="fill:#14de00;stroke-width:0.491509"
   d="M 46.10946,321.7804 C 41.540752,320.61217 35.762825,316.54065 32.739706,309.73686 15.56061,271.07384 13.464212,263.78765 7.3098606,243.98048 5.501175,238.1594 4.5379032,234.12432 4.3199633,231.45599 c -0.1768416,-2.16514 -0.8177188,-4.6655 -0.8101209,-5.64023 0.084937,-10.89649 1.4657492,-18.49994 15.3444916,-27.43304 7.183045,-4.62339 19.158565,-8.38943 23.669615,-8.37843 4.016214,0.01 9.397716,3.64007 11.46982,7.73734 0.508245,1.00497 3.958459,9.00425 7.667148,17.77615 8.077193,19.10445 8.526855,20.02189 10.785051,22.00462 2.878589,2.52743 6.13586,1.89158 8.949388,-1.74698 0.788927,-1.02027 3.499243,-5.49875 6.022922,-9.95218 26.946082,-47.55061 57.284732,-94.90414 82.217382,-128.327497 9.37208,-12.563709 16.67212,-21.615361 29.68293,-36.80521 27.64904,-32.27969 32.4445,-36.671418 48.78372,-44.676619 8.15468,-3.995287 16.2019,-6.8327322 24.82382,-8.7528674 6.46135,-1.4389701 17.63999,-2.8994502 20.43551,-2.6698836 l 1.89298,0.1554503 0.68877,3.7510325 0.68878,3.7510332 -7.14018,7.916348 C 267.02174,45.077886 225.18014,100.17354 188.83752,152.70356 150.32214,208.3741 116.07367,262.54704 98.245547,295.99851 c -2.51732,4.72334 -5.26341,9.7789 -6.102422,11.2346 -4.457232,5.75117 -6.107879,8.10784 -12.068413,11.72779 -2.830076,1.73673 -10.853754,3.48082 -21.600277,3.44366 -6.104399,-0.0211 -10.966386,-0.26653 -12.364975,-0.62416 z"
   id="path726"
   sodipodi:nodetypes="sssssscsssssssssscccsssccss" /></g>
</svg>
