<?xml version="1.0" encoding="UTF-8" standalone="no"?>
<!-- Created with Inkscape (http://www.inkscape.org/) -->

<svg
   version="1.0"
   width="600"
   height="600"
   id="svg2"
   xmlns="http://www.w3.org/2000/svg"
   xmlns:svg="http://www.w3.org/2000/svg">
  <defs
     id="defs5" />
  <path
     style="fill:#ff0000;stroke-width:0.500787"
     d="M 79.68267,593.22385 C 66.75505,581.5528 33.901729,543.69825 15.879556,519.70805 10.481637,512.52265 5.8618178,505.55855 4.5533988,502.63461 3.636609,500.58585 3.6350799,500.44517 4.5048456,498.16772 6.636812,492.58525 19.270138,475.73643 33.49809,459.5 52.674693,437.61634 73.52413,416.4641 136.25,355.25575 c 26.2625,-25.62713 51.62728,-50.57649 56.36619,-55.44302 10.82192,-11.11336 10.33605,-9.87547 10.00814,-25.49894 C 202.42417,264.77767 202.16978,261.97277 200.78195,254 196.29238,228.20853 190.25568,206.84949 176.75842,169 164.47452,134.55305 156.23307,108.55829 150.99868,87.75 138.65129,38.665318 143.56016,18.162255 169.9147,8.7427801 176.49593,6.3905578 181.17612,5.8294668 191.65152,6.1368309 199.06622,6.3543894 201.22916,6.6011 205,7.6593882 c 15.38905,4.3189518 29.59434,11.9303578 44.5,23.8437528 7.65431,6.117733 25.24142,23.521025 31.32426,30.996859 8.47818,10.41972 18.45165,24.529055 42.41219,60 18.0604,26.73643 22.07647,32.5 22.64612,32.5 0.62393,0 1.92042,-1.04029 46.11743,-37.00424 58.05827,-47.24312 65.74557,-53.23214 83.51282,-65.063168 26.49462,-17.642482 45.08188,-26.26132 60.24668,-27.936112 7.9884,-0.88224 13.7792,0.375047 22.92535,4.977523 7.0079,3.526467 13.04405,8.006012 19.57365,14.525997 12.86825,12.849275 19.25885,26.603475 17.87975,38.481595 -0.8421,7.25272 -4.6539,11.60851 -13.14545,15.0213 C 572.6247,102.16989 563.30355,109.47458 544.71515,128 495.41985,177.12815 429.31679,263.88426 407.7562,307.75 c -6.76277,13.75908 -7.99639,19.21804 -6.26321,27.71562 3.73745,18.32432 21.54684,54.35018 41.88964,84.73679 5.58955,8.34926 9.34354,13.50206 17.88378,24.54759 4.03989,5.225 8.79895,11.525 10.57568,14 8.02799,11.18301 10.57843,17.92523 8.94078,23.63538 -0.61697,2.15124 -44.23392,66.86047 -52.14724,77.36462 -2.19655,2.9157 -2.92879,3.5439 -4.38618,3.76295 -5.61529,0.844 -13.60023,-3.1592 -25.99037,-13.03 -7.33604,-5.8444 -16.63712,-13.92835 -34.50908,-29.9933 -8.6625,-7.7867 -34.72676,-30.77713 -57.92058,-51.08992 L 263.65884,432.4674 234.32942,461.40474 C 154.93338,539.7394 136.09867,557.62095 110.70969,578.76825 97.59071,589.6955 87.268275,596.9959 84.93267,596.9987 c -0.62751,0 -2.790905,-1.55475 -5.25,-3.77485 z"
     id="path556" />
</svg>
