<?xml version="1.0" encoding="UTF-8" standalone="no"?>
<!-- Created with Inkscape (http://www.inkscape.org/) -->

<svg
   version="1.1"
   id="svg18"
   width="165.69333"
   height="137.05333"
   viewBox="0 0 165.69333 137.05333"
   xmlns="http://www.w3.org/2000/svg"
   xmlns:svg="http://www.w3.org/2000/svg">
  <defs
     id="defs22" />
  <g
     id="g26"
     transform="matrix(1.3333333,0,0,-1.3333333,0,137.05333)">
    <g
       id="g28"
       transform="scale(0.1)">
      <path
         d="M 9.60156,287.039 H 1.19531 L 0,356.648 h 9.83984 c 7.19926,-39.597 27.36326,-60.242 58.08596,-60.242 26.1601,0 40.5622,13.203 40.5622,34.324 0,10.079 -3.84,18 -10.5622,22.793 -8.3985,6.008 -21.8399,8.411 -39.3594,13.204 -38.4062,10.332 -56.88671,19.921 -56.88671,51.613 0,29.754 19.92191,48.953 51.12501,48.953 17.5234,0 32.8828,-5.754 44.8828,-16.797 l 9.3595,14.406 h 8.883 l 2.64,-62.414 h -9.359 c -9.121,35.774 -28.0821,53.77 -56.4063,53.77 -21.125,0 -33.1211,-10.567 -33.1211,-29.043 0,-23.047 17.9961,-25.684 49.9219,-33.602 17.2812,-4.316 31.6835,-7.922 42.7225,-18 9.363,-8.64 14.641,-21.601 14.641,-36.961 0,-33.371 -21.117,-53.047 -59.5237,-53.047 -18.7226,0 -36.2461,6.727 -47.7617,17.997 L 9.60156,287.039"
         style="fill:#ffffff;fill-opacity:1;fill-rule:nonzero;stroke:none"
         id="path30" />
      <path
         d="m 129.359,390.496 v 9.602 c 19.68,1.433 30.961,18.484 32.161,49.675 h 10.082 v -48.718 h 34.566 v -10.559 h -35.766 v -69.375 c 0,-13.672 2.641,-20.391 14.161,-20.391 13.203,0 19.203,10.559 19.921,32.637 h 8.879 c 0,-0.957 0,-2.156 0,-3.125 0,-29.043 -13.199,-44.394 -37.441,-44.394 -21.602,0 -27.363,10.558 -27.363,33.125 v 71.523 h -19.2"
         style="fill:#ffffff;fill-opacity:1;fill-rule:nonzero;stroke:none"
         id="path32" />
      <path
         d="m 273.605,295.926 c 21.122,0 29.52,15.605 29.52,49.445 0,33.836 -8.398,49.676 -29.281,49.676 -20.879,0 -29.281,-15.84 -29.281,-49.676 0,-33.605 8.64,-49.445 29.042,-49.445 z m 0.239,108.965 c 31.683,0 53.765,-23.758 53.765,-59.52 0,-35.762 -22.32,-59.289 -53.765,-59.289 -31.442,0 -54.004,23.527 -54.004,59.289 0,35.762 22.324,59.52 54.004,59.52"
         style="fill:#ffffff;fill-opacity:1;fill-rule:nonzero;stroke:none"
         id="path34" />
      <path
         d="m 333.359,300.008 10.317,0.48 c 6.726,0.242 7.922,1.922 7.922,8.875 v 72.969 c 0,7.922 -2.875,9.602 -13.2,9.602 -2.164,0 -4.558,-0.246 -7.203,-0.246 v 9.367 l 41.047,2.879 v -23.047 c 10.801,15.851 22.801,23.047 39.363,23.047 22.801,0 36.243,-13.68 36.243,-38.399 v -56.172 c 0,-6.953 1.437,-8.633 7.918,-8.875 l 10.324,-0.48 V 289.93 h -58.086 v 10.078 l 10.32,0.48 c 6.242,0.242 7.922,1.922 7.922,8.875 v 57.129 c 0,14.395 -7.922,22.559 -22.082,22.559 -20.16,0 -30.723,-13.438 -30.723,-40.078 v -39.61 c 0,-6.718 0.957,-8.633 7.922,-8.875 l 10.078,-0.48 V 289.93 h -58.082 v 10.078"
         style="fill:#ffffff;fill-opacity:1;fill-rule:nonzero;stroke:none"
         id="path36" />
      <path
         d="m 477.832,380.652 c -1.68,3.594 -3.598,6.485 -5.516,7.676 -2.882,1.926 -7.203,2.649 -12.964,2.649 v 10.078 h 55.925 v -10.078 c -2.402,0 -4.32,0 -6,0 -6.961,0 -9.605,-0.723 -9.605,-5.039 0,-1.438 0.965,-3.84 2.402,-7.442 l 25.446,-58.566 24,57.597 c 0.476,1.446 1.199,2.891 1.199,5.286 0,6.726 -4.797,7.917 -16.801,8.164 v 10.078 h 46.324 v -10.078 c -8.883,0 -14.16,-4.082 -18.004,-12.961 L 523.676,283.68 c -12.481,-29.043 -25.684,-43.684 -46.563,-43.684 -14.16,0 -22.082,7.199 -22.082,18.488 0,7.922 6,14.161 14.403,14.161 7.679,0 12.48,-4.559 12.48,-11.758 0,-4.082 -1.918,-6.004 -1.918,-6.961 0,-1.692 1.442,-2.649 4.317,-2.649 7.679,0 19.679,12.727 30.003,37.688 l 1.68,3.836 -38.164,87.851"
         style="fill:#ffffff;fill-opacity:1;fill-rule:nonzero;stroke:none"
         id="path38" />
      <path
         d="m 676.309,312.488 c 0,-8.886 2.402,-11.289 13.203,-11.289 h 17.043 c 28.562,0 41.043,10.09 41.043,36.016 0,27.363 -15.121,37.199 -49.684,37.199 h -21.605 z m 0,72.481 h 19.203 c 30.965,0 44.644,7.207 44.644,33.847 0,24.239 -10.801,33.606 -36.722,33.606 h -15.121 c -9.84,0 -12.004,-2.402 -12.004,-10.559 z m -50.883,-83.77 h 12.48 c 9.606,0 12.723,2.168 12.723,11.524 v 127.695 c 0,9.355 -3.117,11.523 -12.723,11.523 h -12.48 v 11.282 h 90.726 c 34.086,0 51.844,-14.883 51.844,-42.246 0,-20.637 -13.441,-34.329 -40.32,-40.09 33.121,-4.317 49.203,-18.953 49.203,-44.395 0,-29.043 -22.563,-46.562 -63.602,-46.562 h -87.851 v 11.269"
         style="fill:#ffffff;fill-opacity:1;fill-rule:nonzero;stroke:none"
         id="path40" />
      <path
         d="m 832.551,300.488 14.64,-0.48 V 289.93 h -63.125 v 10.078 l 11.282,0.48 c 6.718,0.242 7.918,2.157 7.918,8.875 v 72.969 c 0,8.398 -3.118,9.356 -14.399,9.356 -2.164,0 -4.558,0 -7.203,0 v 9.367 l 41.766,2.879 v -33.848 c 7.437,22.812 19.679,34.57 35.043,34.57 12.965,0 21.84,-8.886 21.84,-20.41 0,-8.867 -6,-14.875 -13.922,-14.875 -8.875,0 -14.161,5.52 -14.161,13.684 0,4.316 1.68,8.164 4.801,10.312 -0.476,0 -0.957,0 -1.441,0 -15.121,0 -30.961,-22.793 -30.961,-58.32 v -25.684 c 0,-6.718 1.199,-8.633 7.922,-8.875"
         style="fill:#ffffff;fill-opacity:1;fill-rule:nonzero;stroke:none"
         id="path42" />
      <path
         d="m 936.949,295.926 c 21.121,0 29.52,15.605 29.52,49.445 0,33.836 -8.399,49.676 -29.281,49.676 -20.879,0 -29.282,-15.84 -29.282,-49.676 0,-33.605 8.641,-49.445 29.043,-49.445 z m 0.239,108.965 c 31.683,0 53.765,-23.758 53.765,-59.52 0,-35.762 -22.32,-59.289 -53.765,-59.289 -31.442,0 -54.004,23.527 -54.004,59.289 0,35.762 22.324,59.52 54.004,59.52"
         style="fill:#ffffff;fill-opacity:1;fill-rule:nonzero;stroke:none"
         id="path44" />
      <path
         d="m 1055.5,295.926 c 21.13,0 29.52,15.605 29.52,49.445 0,33.836 -8.39,49.676 -29.28,49.676 -20.88,0 -29.28,-15.84 -29.28,-49.676 0,-33.605 8.64,-49.445 29.04,-49.445 z m 0.24,108.965 c 31.69,0 53.77,-23.758 53.77,-59.52 0,-35.762 -22.32,-59.289 -53.77,-59.289 -31.44,0 -54,23.527 -54,59.289 0,35.762 22.32,59.52 54,59.52"
         style="fill:#ffffff;fill-opacity:1;fill-rule:nonzero;stroke:none"
         id="path46" />
      <path
         d="m 1109.98,300.008 10.8,0.48 c 6.72,0.242 8.17,2.157 8.17,8.875 v 136.582 c 0,7.91 -2.89,9.59 -13.21,9.59 -1.92,0 -4.32,-0.234 -6.96,-0.234 v 9.355 l 42.01,2.891 V 348.73 l 36.96,33.836 c 1.68,1.68 2.88,4.082 2.88,5.293 0,3.118 -3.84,4.075 -12.24,4.075 h -7.68 v 9.121 h 61.44 v -9.121 c -0.48,0 -0.96,0 -1.44,0 -15.6,0 -24.96,-7.434 -37.2,-18.723 l -12.24,-11.277 37.68,-50.168 c 6,-8.164 12.72,-11.278 23.76,-11.758 V 289.93 h -61.92 v 10.078 l 7.2,0.48 c 5.52,0.242 8.4,0.711 8.4,3.602 0,1.914 -0.96,3.117 -2.16,4.797 l -28.81,38.886 -14.63,-12.96 v -25.45 c 0,-6.953 1.44,-8.633 8.16,-8.875 l 10.56,-0.48 V 289.93 h -59.53 v 10.078"
         style="fill:#ffffff;fill-opacity:1;fill-rule:nonzero;stroke:none"
         id="path48" />
      <path
         d="m 166.684,223.223 v -11.282 h -12.481 c -9.598,0 -12.719,-2.402 -12.719,-11.523 v -96.973 c 0,-30.4762 15.121,-44.3942 48.004,-44.3942 21.602,0 36,7.6758 42.723,22.3164 3.121,6.7266 3.602,17.7617 3.602,33.3668 v 75.606 c 0,14.64 -3.122,21.601 -17.282,21.601 h -10.562 v 11.282 h 66.008 v -11.282 h -8.883 c -13.684,0 -17.52,-6.25 -17.52,-21.601 v -76.563 c 0,-47.0504 -17.285,-67.9293 -66.488,-67.9293 -43.445,0 -65.523,19.4336 -65.523,57.8433 v 96.727 c 0,9.121 -2.641,11.523 -12.727,11.523 H 88.9141 v 11.282 h 77.7699"
         style="fill:#ffffff;fill-opacity:1;fill-rule:nonzero;stroke:none"
         id="path50" />
      <path
         d="m 262.441,60.0078 10.317,0.4805 c 6.726,0.2422 7.922,1.9219 7.922,8.875 v 72.9687 c 0,7.922 -2.875,9.602 -13.2,9.602 -2.164,0 -4.558,-0.246 -7.203,-0.246 v 9.367 l 41.047,2.879 v -23.047 c 10.801,15.851 22.801,23.047 39.364,23.047 22.8,0 36.242,-13.68 36.242,-38.399 V 69.3633 c 0,-6.9531 1.437,-8.6328 7.918,-8.875 l 10.324,-0.4805 V 49.9297 h -58.086 v 10.0781 l 10.32,0.4805 c 6.242,0.2422 7.922,1.9219 7.922,8.875 v 57.1287 c 0,14.395 -7.922,22.559 -22.082,22.559 -20.16,0 -30.723,-13.438 -30.723,-40.078 V 69.3633 c 0,-6.7188 0.957,-8.6328 7.922,-8.875 l 10.078,-0.4805 V 49.9297 h -58.082 v 10.0781"
         style="fill:#ffffff;fill-opacity:1;fill-rule:nonzero;stroke:none"
         id="path52" />
      <path
         d="m 443.883,209.305 c 0,-7.93 -6.481,-14.16 -14.399,-14.16 -7.921,0 -14.164,6.718 -14.164,14.16 0,7.675 6.481,14.16 14.164,14.16 7.68,0 14.399,-6.25 14.399,-14.16 z M 399.477,60.0078 411,60.4883 c 6.719,0.2422 8.16,2.1562 8.16,8.875 v 72.9687 c 0,7.922 -2.879,9.602 -13.199,9.602 -1.922,0 -4.32,-0.246 -6.961,-0.246 v 9.367 l 42,2.879 V 69.3633 c 0,-6.9531 1.441,-8.6328 8.164,-8.875 l 10.563,-0.4805 V 49.9297 h -60.25 v 10.0781"
         style="fill:#ffffff;fill-opacity:1;fill-rule:nonzero;stroke:none"
         id="path54" />
      <path
         d="m 514.199,46.082 -41.523,95.293 c -3.121,7.441 -6.481,9.602 -15.602,9.602 -0.715,0 -1.199,0 -1.679,0 v 10.078 h 53.765 v -10.078 c -10.082,-0.247 -14.398,-0.969 -14.398,-5.52 0,-1.445 0.957,-3.848 2.636,-7.684 l 25.922,-59.7652 21.364,55.2032 c 1.437,3.848 2.402,6.965 2.402,9.602 0,5.046 -4.563,8.164 -13.203,8.164 -0.719,0 -1.68,0 -2.645,0 v 10.078 h 46.571 v -10.078 c -10.801,-0.247 -15.844,-5.52 -20.407,-16.809 L 521.641,46.082 h -7.442"
         style="fill:#ffffff;fill-opacity:1;fill-rule:nonzero;stroke:none"
         id="path56" />
      <path
         d="m 644.758,114.012 c 6.238,0 8.402,1.445 8.402,7.676 0,21.847 -9.121,33.613 -25.445,33.613 -18.242,0 -27.117,-13.692 -27.602,-41.289 z M 599.633,98.8945 c 0,-25.4492 12.961,-40.0859 31.926,-40.0859 16.562,0 29.281,8.6406 38.164,25.9258 l 8.398,-4.8047 C 667.559,57.3711 650.52,46.082 627.477,46.082 c -30.247,0 -52.086,23.2813 -52.086,59.289 0,35.762 21.601,59.52 52.086,59.52 30.961,0 50.644,-21.356 50.644,-56.875 0,-1.446 0,-2.891 0,-4.325 h -78.25 c 0,-1.679 -0.238,-3.117 -0.238,-4.7965"
         style="fill:#ffffff;fill-opacity:1;fill-rule:nonzero;stroke:none"
         id="path58" />
      <path
         d="m 732.113,60.4883 14.645,-0.4805 V 49.9297 h -63.125 v 10.0781 l 11.277,0.4805 c 6.723,0.2422 7.922,2.1562 7.922,8.875 v 72.9687 c 0,8.398 -3.121,9.356 -14.398,9.356 -2.164,0 -4.563,0 -7.204,0 v 9.367 l 41.762,2.879 v -33.848 c 7.442,22.812 19.684,34.57 35.043,34.57 12.965,0 21.844,-8.886 21.844,-20.41 0,-8.867 -6,-14.875 -13.922,-14.875 -8.883,0 -14.16,5.52 -14.16,13.684 0,4.316 1.68,8.164 4.801,10.312 -0.481,0 -0.957,0 -1.442,0 -15.121,0 -30.961,-22.793 -30.961,-58.3201 V 69.3633 c 0,-6.7188 1.2,-8.6328 7.918,-8.875"
         style="fill:#ffffff;fill-opacity:1;fill-rule:nonzero;stroke:none"
         id="path60" />
      <path
         d="m 795.473,93.8555 c 6.004,-24.7266 20.164,-37.6953 39.363,-37.6953 15.359,0 25.203,7.9296 25.203,19.9218 0,12.7266 -9.598,15.3711 -25.203,18.4883 -29.039,6.0037 -46.563,11.0427 -46.563,37.6837 0,19.922 13.442,32.402 33.364,32.402 11.519,0 20.398,-2.168 30.242,-9.355 l 6.961,8.398 h 7.441 v -39.844 h -7.441 c -6.723,20.879 -18.723,31.446 -35.766,31.446 -13.441,0 -21.84,-7.442 -21.84,-16.563 0,-14.16 10.321,-15.847 30,-19.687 28.329,-5.528 42.965,-12 42.965,-35.9963 0,-23.0469 -15.121,-37.4492 -40.082,-37.4492 -11.281,0 -21.363,3.6015 -31.445,11.7656 l -7.922,-11.043 h -7.918 v 47.5274 h 8.641"
         style="fill:#ffffff;fill-opacity:1;fill-rule:nonzero;stroke:none"
         id="path62" />
      <path
         d="m 926.508,209.305 c 0,-7.93 -6.477,-14.16 -14.399,-14.16 -7.918,0 -14.16,6.718 -14.16,14.16 0,7.675 6.481,14.16 14.16,14.16 7.68,0 14.399,-6.25 14.399,-14.16 z m -44.403,-149.2972 11.524,0.4805 c 6.719,0.2422 8.156,2.1562 8.156,8.875 v 72.9687 c 0,7.922 -2.879,9.602 -13.195,9.602 -1.926,0 -4.32,-0.246 -6.965,-0.246 v 9.367 l 42.004,2.879 V 69.3633 c 0,-6.9531 1.441,-8.6328 8.164,-8.875 l 10.562,-0.4805 V 49.9297 h -60.25 v 10.0781"
         style="fill:#ffffff;fill-opacity:1;fill-rule:nonzero;stroke:none"
         id="path64" />
      <path
         d="m 939.945,150.496 v 9.602 c 19.68,1.433 30.961,18.484 32.16,49.675 h 10.083 v -48.718 h 34.562 V 150.496 H 980.988 V 81.1211 c 0,-13.6719 2.641,-20.3906 14.16,-20.3906 13.202,0 19.202,10.5586 19.922,32.6367 h 8.88 c 0,-0.957 0,-2.1563 0,-3.125 0,-29.043 -13.2,-44.3945 -37.442,-44.3945 -21.602,0 -27.363,10.5586 -27.363,33.125 v 71.5233 h -19.2"
         style="fill:#ffffff;fill-opacity:1;fill-rule:nonzero;stroke:none"
         id="path66" />
      <path
         d="m 1042.9,140.652 c -1.68,3.594 -3.6,6.485 -5.52,7.676 -2.88,1.926 -7.2,2.649 -12.96,2.649 v 10.078 h 55.93 v -10.078 c -2.41,0 -4.32,0 -6,0 -6.97,0 -9.61,-0.723 -9.61,-5.039 0,-1.438 0.96,-3.84 2.4,-7.442 l 25.45,-58.5663 24,57.5973 c 0.48,1.446 1.2,2.891 1.2,5.286 0,6.726 -4.8,7.917 -16.8,8.164 v 10.078 h 46.32 v -10.078 c -8.88,0 -14.16,-4.082 -18,-12.961 L 1088.74,43.6797 C 1076.26,14.6406 1063.06,0 1042.18,0 c -14.16,0 -22.08,7.19922 -22.08,18.4805 0,7.9179 6,14.164 14.4,14.164 7.68,0 12.48,-4.5586 12.48,-11.7539 0,-4.082 -1.92,-6.0117 -1.92,-6.9687 0,-1.6914 1.44,-2.6406 4.32,-2.6406 7.68,0 19.68,12.7187 30,37.6835 l 1.68,3.836 -38.16,87.8512"
         style="fill:#ffffff;fill-opacity:1;fill-rule:nonzero;stroke:none"
         id="path68" />
      <path
         d="m 823.883,977.699 c -112.91,68.931 -290.832,64.801 -405.039,0 V 796.973 c -1.367,-97.344 61.308,-187.989 146.094,-229.875 18.671,-9.188 35.945,-15.567 56.445,-20.371 20.476,4.804 37.754,11.183 56.414,20.371 84.758,41.855 147.461,132.531 146.066,229.875 l 0.02,180.726"
         style="fill:#ffffff;fill-opacity:1;fill-rule:nonzero;stroke:none"
         id="path70" />
      <path
         d="m 758.336,628.984 -85.254,396.376 c -3.574,0.36 -7.18,0.58 -10.762,0.85 l 71.621,-421.397 c 8.633,7.511 16.778,15.597 24.395,24.171"
         style="fill:#990000;fill-opacity:1;fill-rule:nonzero;stroke:none"
         id="path72" />
      <path
         d="m 823.473,782.527 -98.418,234.213 c -3.77,0.87 -7.578,1.6 -11.387,2.35 L 817.984,742.559 c 2.996,13.062 4.805,26.433 5.489,39.968"
         style="fill:#990000;fill-opacity:1;fill-rule:nonzero;stroke:none"
         id="path74" />
      <path
         d="m 677.797,567.117 c 6.437,3.184 12.695,6.738 18.867,10.461 l -48.867,449.732 c -3.848,0.18 -7.703,0.16 -11.582,0.26 l 29.64,-465.98 c 3.954,1.75 7.899,3.535 11.942,5.527"
         style="fill:#990000;fill-opacity:1;fill-rule:nonzero;stroke:none"
         id="path76" />
      <path
         d="M 802.328,696.543 698.617,1021.93 c -3.621,0.59 -7.273,1.05 -10.906,1.55 L 786,665.984 c 6.113,9.817 11.582,20.02 16.328,30.559"
         style="fill:#990000;fill-opacity:1;fill-rule:nonzero;stroke:none"
         id="path78" />
      <path
         d="m 823.891,977.723 c -24.911,15.195 -53.075,26.637 -82.911,34.867 l 82.883,-173.625 0.028,138.758"
         style="fill:#990000;fill-opacity:1;fill-rule:nonzero;stroke:none"
         id="path80" />
      <path
         d="m 544.02,812.547 11.316,-34.754 -29.559,21.484 -29.504,-21.484 11.301,34.754 -29.394,21.406 h 36.336 l 11.261,34.547 11.328,-34.547 h 36.29 z M 418.844,977.723 V 796.992 c -1.387,-97.344 61.297,-188.008 146.082,-229.875 18.664,-9.199 35.957,-15.566 56.437,-20.371 v 481.114 c -72.707,-0.59 -145.547,-17.8 -202.519,-50.137"
         style="fill:#990000;fill-opacity:1;fill-rule:nonzero;stroke:none"
         id="path82" />
    </g>
  </g>
</svg>
